<svg width="60" height="60" viewBox="0 0 60 60" fill="none" xmlns="http://www.w3.org/2000/svg">
<circle cx="30" cy="30" r="30" fill="url(#paint0_linear_1_1614)"/>
<path d="M30.4336 30.2832C30.4336 31.7119 30.1615 32.9458 29.6172 33.9849C29.0729 35.0239 28.3245 35.8187 27.3721 36.3691C26.4258 36.9134 25.3558 37.1855 24.1621 37.1855C22.9622 37.1855 21.8861 36.9134 20.9336 36.3691C19.9811 35.8187 19.2327 35.0239 18.6885 33.9849C18.1442 32.9396 17.8721 31.7057 17.8721 30.2832C17.8721 28.8545 18.1442 27.6206 18.6885 26.5815C19.2327 25.5425 19.9811 24.7508 20.9336 24.2065C21.8861 23.6561 22.9622 23.3809 24.1621 23.3809C25.3558 23.3809 26.4258 23.6561 27.3721 24.2065C28.3245 24.7508 29.0729 25.5425 29.6172 26.5815C30.1615 27.6206 30.4336 28.8545 30.4336 30.2832ZM20.7109 30.2832C20.7109 31.2233 20.8501 32.0273 21.1284 32.6953C21.4129 33.3571 21.8149 33.8581 22.3345 34.1982C22.854 34.5384 23.4632 34.7116 24.1621 34.7178C24.8548 34.7116 25.4578 34.5384 25.9712 34.1982C26.4907 33.8519 26.8896 33.3478 27.168 32.686C27.4525 32.0243 27.5947 31.2233 27.5947 30.2832C27.5947 29.3431 27.4525 28.5422 27.168 27.8804C26.8896 27.2124 26.4907 26.7083 25.9712 26.3682C25.4578 26.028 24.8548 25.8548 24.1621 25.8486C23.4632 25.8548 22.854 26.028 22.3345 26.3682C21.8149 26.7083 21.4129 27.2124 21.1284 27.8804C20.8501 28.5422 20.7109 29.3431 20.7109 30.2832ZM32.4375 23.5664H35.2207V29.5225H35.4062L40.2861 23.5664H43.6445L38.6348 29.5781L43.7002 37H40.3604L36.6309 31.4521L35.2207 33.1592V37H32.4375V23.5664Z" fill="white"/>
<defs>
<linearGradient id="paint0_linear_1_1614" x1="-29.0503" y1="29.0503" x2="29.0503" y2="87.1509" gradientUnits="userSpaceOnUse">
<stop stop-color="#A1FF8B"/>
<stop offset="1" stop-color="#3F93FF"/>
</linearGradient>
</defs>
</svg>
